<?xml version="1.0" encoding="UTF-8" standalone="no"?> <svg id="Layer_1" data-name="Layer 1" xmlns="http://www.w3.org/2000/svg" viewBox="0 0 512 512"><defs><style>.cls-1{fill:#ffd38d;}.cls-2{fill:#6d4135;}</style></defs><title>check-filled</title><circle class="cls-1" cx="256" cy="256" r="234.67"/><path class="cls-2" d="M256,512C114.84,512,0,397.16,0,256S114.84,0,256,0,512,114.84,512,256,397.16,512,256,512Zm0-469.33C138.37,42.67,42.67,138.37,42.67,256S138.37,469.33,256,469.33,469.33,373.63,469.33,256,373.63,42.67,256,42.67Z"/><path class="cls-2" d="M234.66,341.33a21.24,21.24,0,0,1-11.82-3.58l-64-42.67a21.33,21.33,0,0,1,23.67-35.5l48.05,32,94.39-113.27a21.33,21.33,0,0,1,32.78,27.31l-106.67,128A21.31,21.31,0,0,1,234.66,341.33Z"/></svg>